<svg xmlns="http://www.w3.org/2000/svg" xmlns:xlink="http://www.w3.org/1999/xlink" width="334" height="44.004" viewBox="0 0 334 44.004">
  <defs>
    <clipPath id="clip-path">
      <rect id="Rectangle_172" data-name="Rectangle 172" width="334" height="44.004" fill="none"/>
    </clipPath>
  </defs>
  <g id="Group_282" data-name="Group 282" transform="translate(1031.034 -1521.039)">
    <g id="Group_93" data-name="Group 93" transform="translate(-1031.034 1521.039)" clip-path="url(#clip-path)">
      <path id="Path_40" data-name="Path 40" d="M-751.146,1600.73c-.042,4.116-2.449,6.863-6.552,7.846a18.039,18.039,0,0,1-4.114.423h-8.431a.746.746,0,0,1-.823-.823v-14.892a.746.746,0,0,1,.823-.823h8.675a19.594,19.594,0,0,1,3.736.343c4.111.948,6.643,3.81,6.685,7.926" transform="translate(1084.92 -1565.339)" fill="#fff"/>
      <path id="Path_41" data-name="Path 41" d="M-770.2,1550.688a.776.776,0,0,1-.863-.848v-13.616a.776.776,0,0,1,.863-.848h7.539a18.912,18.912,0,0,1,3.546.32c3.9.884,6.3,3.5,6.344,7.337-.04,3.838-2.369,6.393-6.262,7.31a19.542,19.542,0,0,1-3.825.346Z" transform="translate(1084.92 -1525.677)" fill="#fbd10e"/>
      <path id="Path_42" data-name="Path 42" d="M-995.984,1535.29v33.82h-7.687V1566.4a15.466,15.466,0,0,1-9.838,3.321,17.556,17.556,0,0,1-17.525-17.525,17.556,17.556,0,0,1,17.525-17.525,15.462,15.462,0,0,1,9.838,3.321v-2.706Zm-7.133,16.971c0-6.457-4.735-10.822-10.331-10.822s-10.33,4.366-10.33,10.822,4.734,10.823,10.33,10.823,10.331-4.366,10.331-10.823" transform="translate(1031.034 -1525.451)" fill="#fff"/>
      <path id="Path_43" data-name="Path 43" d="M-940.548,1521.041V1564.7h-7.871v-2.575a15.674,15.674,0,0,1-9.653,3.189,17.556,17.556,0,0,1-17.525-17.525,17.556,17.556,0,0,1,17.525-17.525,15.674,15.674,0,0,1,9.653,3.19V1521.04Zm-7.133,26.81c0-6.457-4.735-10.823-10.331-10.823s-10.33,4.366-10.33,10.823,4.734,10.822,10.33,10.822,10.331-4.365,10.331-10.822" transform="translate(1013.097 -1521.04)" fill="#fff"/>
      <path id="Path_44" data-name="Path 44" d="M-885.111,1535.29v33.82H-892.8V1566.4a15.462,15.462,0,0,1-9.837,3.321A17.556,17.556,0,0,1-920.16,1552.2a17.556,17.556,0,0,1,17.525-17.525A15.458,15.458,0,0,1-892.8,1538v-2.706Zm-7.133,16.971c0-6.457-4.735-10.822-10.331-10.822s-10.33,4.366-10.33,10.822,4.734,10.823,10.33,10.823,10.331-4.366,10.331-10.823" transform="translate(995.16 -1525.451)" fill="#fff"/>
      <path id="Path_45" data-name="Path 45" d="M-818.428,1548.94a9.368,9.368,0,0,0-.479-3.375c-1.008-2.742-3.479-4.187-6.646-4.187a6.919,6.919,0,0,0-6.518,4.175,8.031,8.031,0,0,0-.614,3.387l.061,20.169h-8.3l.054-20.169a9.365,9.365,0,0,0-.479-3.375c-1.008-2.743-3.479-4.187-6.645-4.187a6.908,6.908,0,0,0-6.517,4.175,8.126,8.126,0,0,0-.615,3.388v20.169h-8.118v-33.82h7.5v3.074c1.611-1.986,4.463-3.683,8.793-3.683a13.315,13.315,0,0,1,11.067,5.343c2.152-3.2,5.965-5.349,11.191-5.349,8,0,14.376,5.552,14.376,13.22v21.214h-8.117l.006-20.169Z" transform="translate(976.745 -1525.451)" fill="#fff"/>
      <path id="Path_46" data-name="Path 46" d="M-968.169,1629.144c-8.731,0-14.82-5.227-14.82-12.913,0-4.243,2.214-7.871,6.4-10.761a12.151,12.151,0,0,1-.738-4c0-4.981,4.182-9.039,11.056-9.039a12.333,12.333,0,0,1,9.382,3.757l-4.981,4.415a6.018,6.018,0,0,0-4.513-1.9c-2.214,0-3.874,1.353-3.874,3.074,0,1.476.892,2.792,2.4,4.427l9.962,10.822a14.863,14.863,0,0,0,3.055-4.063l4.428,4.827a21.513,21.513,0,0,1-2.994,4.156l6.026,6.58h-9.47l-1.783-1.968a18.273,18.273,0,0,1-9.531,2.583Zm4.858-7.625-9.531-10.392c-2.337,1.537-3.074,3.259-3.074,5.1,0,3.812,2.767,6.518,7.87,6.518a11.078,11.078,0,0,0,4.735-1.229" transform="translate(1153.489 -1585.139)" fill="#fff"/>
      <path id="Path_47" data-name="Path 47" d="M-913.037,1594.888c9.838,0,17.525,7.87,17.525,18.108a13.261,13.261,0,0,1-.166,1.937l-27.289.123a10.393,10.393,0,0,0,10.238,8.24c4.193,0,7.556-1.666,8.767-5.515l7.17,1.18a17.32,17.32,0,0,1-15.938,10.976c-10.208,0-17.955-7.749-17.955-17.587a17.568,17.568,0,0,1,17.648-17.463Zm0,6.7a10.106,10.106,0,0,0-9.93,7.563h19.832c-.9-4.482-5.295-7.563-9.9-7.563Z" transform="translate(1136.566 -1585.933)" fill="#fff"/>
      <path id="Path_48" data-name="Path 48" d="M-847.957,1595.8l-13.651,33.758h-7.563l-13.651-33.758h8.363l9.039,24.1,9.1-24.1Z" transform="translate(1121.08 -1586.227)" fill="#fff"/>
      <path id="Path_49" data-name="Path 49" d="M-817.769,1594.888c9.839,0,17.526,7.87,17.526,18.108a13.183,13.183,0,0,1-.166,1.937l-27.289.123a10.393,10.393,0,0,0,10.238,8.24c4.193,0,7.557-1.666,8.767-5.515l7.17,1.18a17.321,17.321,0,0,1-15.938,10.976c-10.207,0-17.955-7.749-17.955-17.587a17.568,17.568,0,0,1,17.648-17.463Zm0,6.7a10.1,10.1,0,0,0-9.929,7.563h19.831c-.9-4.482-5.294-7.563-9.9-7.563Z" transform="translate(1105.742 -1585.933)" fill="#fff"/>
    </g>
  </g>
</svg>
